<mxfile host="65bd71144e">
    <diagram id="LIJweptATULOvJVxF39P" name="Page-1">
        <mxGraphModel dx="881" dy="1039" grid="1" gridSize="10" guides="1" tooltips="1" connect="1" arrows="1" fold="1" page="1" pageScale="1" pageWidth="850" pageHeight="1100" math="0" shadow="0">
            <root>
                <mxCell id="0"/>
                <mxCell id="1" parent="0"/>
                <mxCell id="33" value="" style="shape=cylinder3;whiteSpace=wrap;html=1;boundedLbl=1;backgroundOutline=1;size=15;dashed=1;fontColor=#000000;" vertex="1" parent="1">
                    <mxGeometry x="50" y="270" width="120" height="165" as="geometry"/>
                </mxCell>
                <mxCell id="14" style="edgeStyle=none;html=1;exitX=0.5;exitY=0;exitDx=0;exitDy=0;entryX=0.5;entryY=1;entryDx=0;entryDy=0;fontColor=#000000;" edge="1" parent="1" source="2" target="4">
                    <mxGeometry relative="1" as="geometry"/>
                </mxCell>
                <mxCell id="2" value="Catalogue" style="rounded=0;whiteSpace=wrap;html=1;fontColor=#000000;" vertex="1" parent="1">
                    <mxGeometry x="255" y="220" width="90" height="40" as="geometry"/>
                </mxCell>
                <mxCell id="11" style="edgeStyle=none;html=1;exitX=1;exitY=0.5;exitDx=0;exitDy=0;entryX=0;entryY=0.5;entryDx=0;entryDy=0;fontColor=#000000;" edge="1" parent="1" source="3" target="4">
                    <mxGeometry relative="1" as="geometry"/>
                </mxCell>
                <mxCell id="3" value="Parser" style="rounded=0;whiteSpace=wrap;html=1;fontColor=#000000;" vertex="1" parent="1">
                    <mxGeometry x="170" y="140" width="50" height="60" as="geometry"/>
                </mxCell>
                <mxCell id="12" style="edgeStyle=none;html=1;exitX=1;exitY=0.5;exitDx=0;exitDy=0;entryX=0;entryY=0.5;entryDx=0;entryDy=0;fontColor=#000000;" edge="1" parent="1" source="4" target="5">
                    <mxGeometry relative="1" as="geometry"/>
                </mxCell>
                <mxCell id="4" value="Query&lt;br&gt;Semantic&amp;nbsp;&lt;br&gt;Analysis" style="rounded=0;whiteSpace=wrap;html=1;fontColor=#000000;" vertex="1" parent="1">
                    <mxGeometry x="255" y="140" width="90" height="60" as="geometry"/>
                </mxCell>
                <mxCell id="13" style="edgeStyle=none;html=1;exitX=1;exitY=0.5;exitDx=0;exitDy=0;entryX=0;entryY=0.5;entryDx=0;entryDy=0;fontColor=#000000;" edge="1" parent="1" source="5" target="7">
                    <mxGeometry relative="1" as="geometry"/>
                </mxCell>
                <mxCell id="5" value="Optimiser" style="rounded=0;whiteSpace=wrap;html=1;fontColor=#000000;" vertex="1" parent="1">
                    <mxGeometry x="380" y="140" width="90" height="60" as="geometry"/>
                </mxCell>
                <mxCell id="15" style="edgeStyle=none;html=1;exitX=0.5;exitY=0;exitDx=0;exitDy=0;entryX=0.5;entryY=1;entryDx=0;entryDy=0;fontColor=#000000;" edge="1" parent="1" source="6" target="5">
                    <mxGeometry relative="1" as="geometry"/>
                </mxCell>
                <mxCell id="6" value="Statistics" style="rounded=0;whiteSpace=wrap;html=1;fontColor=#000000;" vertex="1" parent="1">
                    <mxGeometry x="380" y="220" width="90" height="40" as="geometry"/>
                </mxCell>
                <mxCell id="17" style="edgeStyle=none;html=1;exitX=1;exitY=0.5;exitDx=0;exitDy=0;entryX=0;entryY=0.5;entryDx=0;entryDy=0;entryPerimeter=0;fontColor=#000000;" edge="1" parent="1" source="7" target="44">
                    <mxGeometry relative="1" as="geometry"/>
                </mxCell>
                <mxCell id="7" value="Generator" style="rounded=0;whiteSpace=wrap;html=1;fontColor=#000000;" vertex="1" parent="1">
                    <mxGeometry x="500" y="140" width="80" height="60" as="geometry"/>
                </mxCell>
                <mxCell id="20" style="edgeStyle=none;html=1;exitX=0.5;exitY=1;exitDx=0;exitDy=0;entryX=0.5;entryY=0;entryDx=0;entryDy=0;entryPerimeter=0;fontColor=#000000;" edge="1" parent="1" source="9" target="55">
                    <mxGeometry relative="1" as="geometry">
                        <mxPoint x="655" y="330" as="targetPoint"/>
                    </mxGeometry>
                </mxCell>
                <mxCell id="9" value="C++&lt;br&gt;Compiler" style="rounded=0;whiteSpace=wrap;html=1;fontColor=#000000;" vertex="1" parent="1">
                    <mxGeometry x="620" y="240" width="70" height="60" as="geometry"/>
                </mxCell>
                <mxCell id="43" style="edgeStyle=none;html=1;exitX=0;exitY=0.5;exitDx=0;exitDy=0;entryX=1;entryY=0.5;entryDx=0;entryDy=0;fontSize=12;exitPerimeter=0;fontColor=#000000;" edge="1" parent="1" source="55" target="42">
                    <mxGeometry relative="1" as="geometry">
                        <mxPoint x="615" y="365" as="sourcePoint"/>
                    </mxGeometry>
                </mxCell>
                <mxCell id="25" style="edgeStyle=none;html=1;exitX=0.5;exitY=1;exitDx=0;exitDy=0;entryX=0.5;entryY=0;entryDx=0;entryDy=0;fontColor=#000000;" edge="1" parent="1" source="24" target="3">
                    <mxGeometry relative="1" as="geometry"/>
                </mxCell>
                <mxCell id="24" value="SQL&lt;br&gt;Query" style="rounded=0;whiteSpace=wrap;html=1;fontColor=#000000;" vertex="1" parent="1">
                    <mxGeometry x="170" y="50" width="50" height="60" as="geometry"/>
                </mxCell>
                <mxCell id="32" style="edgeStyle=none;html=1;exitX=1;exitY=0.25;exitDx=0;exitDy=0;entryX=0;entryY=0.25;entryDx=0;entryDy=0;fontColor=#000000;" edge="1" parent="1" source="26" target="30">
                    <mxGeometry relative="1" as="geometry"/>
                </mxCell>
                <mxCell id="60" style="edgeStyle=orthogonalEdgeStyle;html=1;exitX=0.5;exitY=0;exitDx=0;exitDy=0;entryX=0;entryY=0.5;entryDx=0;entryDy=0;fontSize=12;rounded=0;fontColor=#000000;" edge="1" parent="1" source="26" target="2">
                    <mxGeometry relative="1" as="geometry"/>
                </mxCell>
                <mxCell id="26" value="Storage Manager" style="rounded=0;whiteSpace=wrap;html=1;fontColor=#000000;" vertex="1" parent="1">
                    <mxGeometry x="200" y="330" width="72.5" height="68.75" as="geometry"/>
                </mxCell>
                <mxCell id="27" value="" style="shape=note;whiteSpace=wrap;html=1;backgroundOutline=1;darkOpacity=0.05;size=20;fontColor=#000000;" vertex="1" parent="1">
                    <mxGeometry x="77.5" y="332.5" width="45" height="70" as="geometry"/>
                </mxCell>
                <mxCell id="28" value="" style="shape=note;whiteSpace=wrap;html=1;backgroundOutline=1;darkOpacity=0.05;size=20;fontColor=#000000;" vertex="1" parent="1">
                    <mxGeometry x="87.5" y="322.5" width="45" height="70" as="geometry"/>
                </mxCell>
                <mxCell id="29" value="Table" style="shape=note;whiteSpace=wrap;html=1;backgroundOutline=1;darkOpacity=0.05;size=20;fontColor=#000000;" vertex="1" parent="1">
                    <mxGeometry x="97.5" y="312.5" width="45" height="70" as="geometry"/>
                </mxCell>
                <mxCell id="31" style="edgeStyle=none;html=1;exitX=0;exitY=0.75;exitDx=0;exitDy=0;entryX=1;entryY=0.75;entryDx=0;entryDy=0;fontColor=#000000;" edge="1" parent="1" source="30" target="26">
                    <mxGeometry relative="1" as="geometry"/>
                </mxCell>
                <mxCell id="52" style="edgeStyle=none;html=1;exitX=1;exitY=0.25;exitDx=0;exitDy=0;entryX=0;entryY=0.25;entryDx=0;entryDy=0;fontSize=12;fontColor=#000000;" edge="1" parent="1" source="30" target="42">
                    <mxGeometry relative="1" as="geometry"/>
                </mxCell>
                <mxCell id="30" value="" style="rounded=0;whiteSpace=wrap;html=1;fontColor=#000000;" vertex="1" parent="1">
                    <mxGeometry x="302.5" y="330" width="167.5" height="68.75" as="geometry"/>
                </mxCell>
                <mxCell id="34" value="File System" style="text;html=1;strokeColor=none;fillColor=none;align=center;verticalAlign=middle;whiteSpace=wrap;rounded=0;dashed=1;fontColor=#000000;" vertex="1" parent="1">
                    <mxGeometry x="67.5" y="405" width="85" height="30" as="geometry"/>
                </mxCell>
                <mxCell id="40" value="4096 byte pages" style="text;html=1;strokeColor=none;fillColor=none;align=center;verticalAlign=middle;whiteSpace=wrap;rounded=0;dashed=1;fontStyle=2;fontSize=8;fontColor=#000000;" vertex="1" parent="1">
                    <mxGeometry x="67.5" y="268" width="85" height="30" as="geometry"/>
                </mxCell>
                <mxCell id="41" value="&lt;font style=&quot;font-size: 12px;&quot;&gt;Concurrency Control&lt;/font&gt;" style="rounded=0;whiteSpace=wrap;html=1;fontSize=8;fontColor=#000000;" vertex="1" parent="1">
                    <mxGeometry x="386" y="345" width="77.5" height="45" as="geometry"/>
                </mxCell>
                <mxCell id="50" style="edgeStyle=none;html=1;exitX=0;exitY=0.75;exitDx=0;exitDy=0;entryX=1;entryY=0.75;entryDx=0;entryDy=0;fontSize=12;fontColor=#000000;" edge="1" parent="1" source="42" target="30">
                    <mxGeometry relative="1" as="geometry"/>
                </mxCell>
                <mxCell id="42" value="&lt;font style=&quot;font-size: 12px;&quot;&gt;Query Executor&lt;/font&gt;" style="rounded=0;whiteSpace=wrap;html=1;fontSize=8;fontColor=#000000;" vertex="1" parent="1">
                    <mxGeometry x="500" y="330" width="70" height="68.75" as="geometry"/>
                </mxCell>
                <mxCell id="46" style="edgeStyle=none;html=1;exitX=0.5;exitY=1;exitDx=0;exitDy=0;exitPerimeter=0;entryX=0.5;entryY=0;entryDx=0;entryDy=0;fontSize=12;fontColor=#000000;" edge="1" parent="1" source="44" target="9">
                    <mxGeometry relative="1" as="geometry"/>
                </mxCell>
                <mxCell id="44" value="&lt;br&gt;source&lt;br&gt;files" style="shape=note;whiteSpace=wrap;html=1;backgroundOutline=1;darkOpacity=0.05;size=20;fontColor=#000000;" vertex="1" parent="1">
                    <mxGeometry x="630" y="135" width="50" height="70" as="geometry"/>
                </mxCell>
                <mxCell id="47" value="Statistical function in aggregate values, and nested queries are not supported." style="text;html=1;strokeColor=none;fillColor=none;align=left;verticalAlign=middle;whiteSpace=wrap;rounded=0;fontSize=8;fontStyle=2;fontColor=#000000;" vertex="1" parent="1">
                    <mxGeometry x="230" y="60" width="80" height="30" as="geometry"/>
                </mxCell>
                <mxCell id="48" value="&lt;span style=&quot;font-family: Helvetica; font-size: 12px; font-style: normal; font-variant-ligatures: normal; font-variant-caps: normal; font-weight: 400; letter-spacing: normal; orphans: 2; text-align: center; text-indent: 0px; text-transform: none; widows: 2; word-spacing: 0px; -webkit-text-stroke-width: 0px; text-decoration-thickness: initial; text-decoration-style: initial; text-decoration-color: initial; float: none; display: inline !important;&quot;&gt;Buffer&lt;/span&gt;&lt;br style=&quot;border-color: rgb(0, 0, 0); font-family: Helvetica; font-size: 12px; font-style: normal; font-variant-ligatures: normal; font-variant-caps: normal; font-weight: 400; letter-spacing: normal; orphans: 2; text-align: center; text-indent: 0px; text-transform: none; widows: 2; word-spacing: 0px; -webkit-text-stroke-width: 0px; text-decoration-thickness: initial; text-decoration-style: initial; text-decoration-color: initial;&quot;&gt;&lt;span style=&quot;font-family: Helvetica; font-size: 12px; font-style: normal; font-variant-ligatures: normal; font-variant-caps: normal; font-weight: 400; letter-spacing: normal; orphans: 2; text-align: center; text-indent: 0px; text-transform: none; widows: 2; word-spacing: 0px; -webkit-text-stroke-width: 0px; text-decoration-thickness: initial; text-decoration-style: initial; text-decoration-color: initial; float: none; display: inline !important;&quot;&gt;Manager&lt;/span&gt;" style="text;html=1;strokeColor=none;fillColor=none;align=center;verticalAlign=middle;whiteSpace=wrap;rounded=0;fontSize=12;labelBackgroundColor=none;fontColor=#000000;" vertex="1" parent="1">
                    <mxGeometry x="302.5" y="347.5" width="77.5" height="40" as="geometry"/>
                </mxCell>
                <mxCell id="53" style="edgeStyle=none;html=1;exitX=1;exitY=0.25;exitDx=0;exitDy=0;entryX=0;entryY=0.25;entryDx=0;entryDy=0;fontColor=#000000;" edge="1" parent="1">
                    <mxGeometry relative="1" as="geometry">
                        <mxPoint x="170" y="347.0475" as="sourcePoint"/>
                        <mxPoint x="200" y="347.0475" as="targetPoint"/>
                    </mxGeometry>
                </mxCell>
                <mxCell id="54" style="edgeStyle=none;html=1;exitX=0;exitY=0.75;exitDx=0;exitDy=0;entryX=1;entryY=0.75;entryDx=0;entryDy=0;fontColor=#000000;" edge="1" parent="1">
                    <mxGeometry relative="1" as="geometry">
                        <mxPoint x="200" y="381.4225" as="sourcePoint"/>
                        <mxPoint x="170" y="381.4225" as="targetPoint"/>
                    </mxGeometry>
                </mxCell>
                <mxCell id="55" value="&lt;br&gt;shared&lt;br&gt;object" style="shape=note;whiteSpace=wrap;html=1;backgroundOutline=1;darkOpacity=0.05;size=20;fontColor=#000000;" vertex="1" parent="1">
                    <mxGeometry x="630" y="329.38" width="50" height="70" as="geometry"/>
                </mxCell>
                <mxCell id="56" value="" style="endArrow=none;dashed=1;html=1;fontSize=12;fontColor=#000000;" edge="1" parent="1">
                    <mxGeometry width="50" height="50" relative="1" as="geometry">
                        <mxPoint x="600" y="410" as="sourcePoint"/>
                        <mxPoint x="600" y="50" as="targetPoint"/>
                    </mxGeometry>
                </mxCell>
                <mxCell id="57" value="In-Process" style="text;html=1;strokeColor=none;fillColor=none;align=right;verticalAlign=middle;whiteSpace=wrap;rounded=0;fontSize=8;fontStyle=1;fontColor=#000000;" vertex="1" parent="1">
                    <mxGeometry x="490" y="50" width="100" height="10" as="geometry"/>
                </mxCell>
                <mxCell id="58" value="Outside Process" style="text;html=1;strokeColor=none;fillColor=none;align=left;verticalAlign=middle;whiteSpace=wrap;rounded=0;fontSize=8;fontStyle=1;fontColor=#000000;" vertex="1" parent="1">
                    <mxGeometry x="605" y="50" width="100" height="10" as="geometry"/>
                </mxCell>
                <mxCell id="59" value="cost based optimisation of internal query representation" style="text;html=1;strokeColor=none;fillColor=none;align=center;verticalAlign=bottom;whiteSpace=wrap;rounded=0;fontSize=8;fontStyle=2;fontColor=#000000;" vertex="1" parent="1">
                    <mxGeometry x="373" y="105" width="105" height="30" as="geometry"/>
                </mxCell>
                <mxCell id="61" value="Generates C++ source, templates contain parameters for hardware" style="text;html=1;strokeColor=none;fillColor=none;align=center;verticalAlign=bottom;whiteSpace=wrap;rounded=0;fontSize=8;fontStyle=2;fontColor=#000000;" vertex="1" parent="1">
                    <mxGeometry x="490" y="65" width="100" height="30" as="geometry"/>
                </mxCell>
                <mxCell id="62" value="queries dynamically linked to database kernel, and can then be executed" style="text;html=1;strokeColor=none;fillColor=none;align=center;verticalAlign=bottom;whiteSpace=wrap;rounded=0;fontSize=8;fontStyle=2;fontColor=#000000;" vertex="1" parent="1">
                    <mxGeometry x="485" y="292.5" width="100" height="30" as="geometry"/>
                </mxCell>
                <mxCell id="63" value="HIQUE persists data to disk and thus requires a buffer manager, despite being developed with the intention to speed up in-memory processing" style="text;html=1;strokeColor=none;fillColor=none;align=center;verticalAlign=bottom;whiteSpace=wrap;rounded=0;fontSize=8;fontStyle=2;fontColor=#000000;" vertex="1" parent="1">
                    <mxGeometry x="306" y="292.5" width="157.5" height="30" as="geometry"/>
                </mxCell>
                <mxCell id="65" value="(GCC)" style="text;html=1;strokeColor=none;fillColor=none;align=center;verticalAlign=bottom;whiteSpace=wrap;rounded=0;fontSize=8;fontStyle=2;fontColor=#000000;" vertex="1" parent="1">
                    <mxGeometry x="605" y="268" width="100" height="30" as="geometry"/>
                </mxCell>
                <mxCell id="66" style="edgeStyle=none;html=1;exitX=0;exitY=0.5;exitDx=0;exitDy=0;entryX=1;entryY=0.5;entryDx=0;entryDy=0;fontSize=12;exitPerimeter=0;fontColor=#000000;" edge="1" parent="1">
                    <mxGeometry relative="1" as="geometry">
                        <mxPoint x="630" y="382.51" as="sourcePoint"/>
                        <mxPoint x="570" y="382.5049999999999" as="targetPoint"/>
                    </mxGeometry>
                </mxCell>
                <mxCell id="67" style="edgeStyle=none;html=1;exitX=0;exitY=0.5;exitDx=0;exitDy=0;entryX=1;entryY=0.5;entryDx=0;entryDy=0;fontSize=12;exitPerimeter=0;fontColor=#000000;" edge="1" parent="1">
                    <mxGeometry relative="1" as="geometry">
                        <mxPoint x="630" y="347.51" as="sourcePoint"/>
                        <mxPoint x="570" y="347.5049999999999" as="targetPoint"/>
                    </mxGeometry>
                </mxCell>
                <mxCell id="68" value="Can invoke any part of the kernel during execution" style="text;html=1;strokeColor=none;fillColor=none;align=center;verticalAlign=bottom;whiteSpace=wrap;rounded=0;fontSize=8;fontStyle=2;fontColor=#000000;" vertex="1" parent="1">
                    <mxGeometry x="485" y="392.5" width="100" height="30" as="geometry"/>
                </mxCell>
                <mxCell id="70" value="Templates" style="rounded=0;whiteSpace=wrap;html=1;fontColor=#000000;" vertex="1" parent="1">
                    <mxGeometry x="500" y="100" width="80" height="40" as="geometry"/>
                </mxCell>
                <mxCell id="73" style="edgeStyle=orthogonalEdgeStyle;rounded=0;html=1;exitX=0.5;exitY=0;exitDx=0;exitDy=0;entryX=0.5;entryY=1;entryDx=0;entryDy=0;fontSize=12;fontColor=#000000;" edge="1" parent="1" source="71" target="7">
                    <mxGeometry relative="1" as="geometry"/>
                </mxCell>
                <mxCell id="71" value="Data Staging" style="rounded=0;whiteSpace=wrap;html=1;fontColor=#000000;" vertex="1" parent="1">
                    <mxGeometry x="495" y="220" width="90" height="20" as="geometry"/>
                </mxCell>
                <mxCell id="75" value="Input is scanned, and pre-processed before being buffer in memory for the query&amp;nbsp;" style="text;html=1;strokeColor=none;fillColor=none;align=center;verticalAlign=middle;whiteSpace=wrap;rounded=0;fontSize=8;fontStyle=2;fontColor=#000000;" vertex="1" parent="1">
                    <mxGeometry x="482.5" y="240" width="115" height="40" as="geometry"/>
                </mxCell>
            </root>
        </mxGraphModel>
    </diagram>
</mxfile>